<svg preserveAspectRatio="none" width="100%" height="100%" overflow="visible" style="display: block;" viewBox="0 0 30 29" fill="none" xmlns="http://www.w3.org/2000/svg">
<g id="Vector">
<path d="M15.9079 8.94126C17.8035 10.0148 18.7512 10.5516 18.9502 11.3062C19.0306 11.6114 19.0306 11.9317 18.9502 12.2369C18.7512 12.9915 17.8035 13.5283 15.9079 14.6019C14.0123 15.6754 13.0645 16.2122 12.2989 16.0039C11.9892 15.9197 11.7065 15.7595 11.4772 15.5386C10.9105 14.9923 10.9105 13.9187 10.9105 11.7716C10.9105 9.62443 10.9105 8.55085 11.4772 8.00456C11.7065 7.78359 11.9892 7.62344 12.2989 7.53919C13.0645 7.3309 14.0123 7.86769 15.9079 8.94126Z" fill="var(--fill-0, #FF4A64)"/>
<path d="M18.9502 11.3062C19.0306 11.6114 19.0306 11.9317 18.9502 12.2369C18.7512 12.9915 17.8035 13.5283 15.9079 14.6019C14.0123 15.6754 13.0645 16.2122 12.2989 16.0039L12.27 15.9958C11.9716 15.9096 11.6993 15.7526 11.4772 15.5386L11.4511 15.5126C10.9106 14.9584 10.9105 13.8851 10.9105 11.7716L10.9737 11.7716C10.9737 12.8467 10.9738 13.6476 11.0442 14.2483C11.1145 14.8492 11.2539 15.2364 11.5215 15.4944C11.7431 15.708 12.0165 15.8628 12.3158 15.9442C12.6774 16.0426 13.089 15.9674 13.6546 15.7267C14.2201 15.4861 14.9272 15.0857 15.8763 14.5482C16.8255 14.0106 17.5325 13.6101 18.0277 13.25C18.5229 12.8898 18.7951 12.5777 18.8891 12.2214C18.9668 11.9264 18.9668 11.6168 18.8891 11.3217C18.7951 10.9654 18.5229 10.6533 18.0277 10.2931C17.5325 9.93301 16.8255 9.53249 15.8763 8.99493C14.9272 8.45737 14.2201 8.05699 13.6546 7.81639C13.089 7.57572 12.6774 7.50052 12.3158 7.59887C12.0164 7.68032 11.7431 7.83517 11.5215 8.04878C11.2539 8.30675 11.1145 8.69396 11.0442 9.29479C10.9738 9.89548 10.9737 10.6964 10.9737 11.7716L10.9105 11.7716L10.9107 11.3814C10.9127 9.52379 10.9449 8.5495 11.4511 8.03057L11.4772 8.00456C11.6993 7.79049 11.9716 7.63353 12.27 7.54733L12.2989 7.53919C13.0167 7.34392 13.8946 7.80351 15.5635 8.74632L15.9079 8.94126C17.7738 9.99804 18.7214 10.5347 18.9403 11.271L18.9502 11.3062Z" fill="var(--fill-0, #FF4A64)"/>
<path d="M26.7789 12.4841V11.6477C26.7789 6.95991 22.905 3.15974 18.1263 3.15974H11.8737C7.09497 3.15974 3.22105 6.95991 3.22105 11.6477V12.4825C3.22105 16.7092 6.71396 20.1356 11.0227 20.1356C12.9705 20.1356 14.7403 21.163 15.7338 22.7511C16.1302 23.3848 16.5488 24.049 16.9019 24.6505C17.2435 25.2324 17.5818 25.8511 17.7777 26.3823C18.0802 27.2028 17.6474 28.1086 16.811 28.4054C15.9746 28.7022 15.0512 28.2776 14.7487 27.4571C14.6576 27.2101 14.4471 26.8006 14.1106 26.2274C13.7856 25.6739 13.3966 25.0562 12.9885 24.4038C12.5552 23.7112 11.8026 23.2953 11.0227 23.2953C4.93502 23.2953 0 18.4542 0 12.4825V11.6477C0 5.21483 5.31603 0 11.8737 0H18.1263C24.684 0 30 5.21483 30 11.6477V12.4841C30 18.4549 25.0657 23.2953 18.9789 23.2953C18.0895 23.2953 17.3684 22.588 17.3684 21.7154C17.3684 20.8429 18.0895 20.1356 18.9789 20.1356C23.2868 20.1356 26.7789 16.7099 26.7789 12.4841Z" fill="var(--fill-0, #FF4A64)"/>
</g>
</svg>
