<svg preserveAspectRatio="none" width="100%" height="100%" overflow="visible" style="display: block;" viewBox="0 0 62 44" fill="none" xmlns="http://www.w3.org/2000/svg">
<path id="Vector" d="M56.875 0H4.375C3.21468 0 2.10188 0.460936 1.28141 1.28141C0.460936 2.10188 0 3.21468 0 4.375V39.375C0 40.5353 0.460936 41.6481 1.28141 42.4686C2.10188 43.2891 3.21468 43.75 4.375 43.75H56.875C58.0353 43.75 59.1481 43.2891 59.9686 42.4686C60.7891 41.6481 61.25 40.5353 61.25 39.375V4.375C61.25 3.21468 60.7891 2.10188 59.9686 1.28141C59.1481 0.460936 58.0353 0 56.875 0ZM51.5648 25.8973C51.7338 26.1307 51.8551 26.3951 51.9219 26.6754C51.9887 26.9556 51.9996 27.2463 51.954 27.5308C51.9084 27.8154 51.8072 28.0881 51.6563 28.3335C51.5053 28.5789 51.3074 28.7922 51.074 28.9611C50.8406 29.1301 50.5762 29.2514 50.2959 29.3182C50.0156 29.3849 49.7249 29.3958 49.4404 29.3503C49.1559 29.3047 48.8832 29.2035 48.6378 29.0525C48.3924 28.9016 48.1791 28.7037 48.0102 28.4703L45.9375 25.5965L43.8512 28.4703C43.51 28.9417 42.9955 29.2582 42.4209 29.3503C41.8463 29.4423 41.2587 29.3023 40.7873 28.9611C40.3159 28.6199 39.9994 28.1054 39.9073 27.5308C39.8153 26.9563 39.9553 26.3686 40.2965 25.8973L42.3855 23.0262L39.0059 21.9324C38.7328 21.8427 38.48 21.7 38.2621 21.5125C38.0442 21.3251 37.8653 21.0966 37.7357 20.84C37.4739 20.3218 37.4287 19.7209 37.61 19.1693C37.6997 18.8963 37.8424 18.6435 38.0299 18.4256C38.2173 18.2076 38.4458 18.0288 38.7024 17.8991C39.2206 17.6374 39.8215 17.5921 40.373 17.7734L43.75 18.8672V15.3125C43.75 14.7323 43.9805 14.1759 44.3907 13.7657C44.8009 13.3555 45.3573 13.125 45.9375 13.125C46.5177 13.125 47.0741 13.3555 47.4843 13.7657C47.8945 14.1759 48.125 14.7323 48.125 15.3125V18.8672L51.502 17.7734C51.775 17.6837 52.0631 17.6486 52.3498 17.6701C52.6364 17.6917 52.916 17.7695 53.1726 17.8991C53.4292 18.0288 53.6577 18.2076 53.8451 18.4256C54.0326 18.6435 54.1753 18.8963 54.265 19.1693C54.3548 19.4424 54.3899 19.7305 54.3683 20.0172C54.3468 20.3038 54.269 20.5834 54.1393 20.84C54.0097 21.0966 53.8308 21.3251 53.6129 21.5125C53.395 21.7 53.1422 21.8427 52.8691 21.9324L49.4895 23.0262L51.5648 25.8973ZM31.8773 25.8973C32.0463 26.1307 32.1676 26.3951 32.2344 26.6754C32.3012 26.9556 32.3121 27.2463 32.2665 27.5308C32.2209 27.8154 32.1197 28.0881 31.9688 28.3335C31.8178 28.5789 31.6199 28.7922 31.3865 28.9611C31.1531 29.1301 30.8887 29.2514 30.6084 29.3182C30.3281 29.3849 30.0374 29.3958 29.7529 29.3503C29.4684 29.3047 29.1957 29.2035 28.9503 29.0525C28.7049 28.9016 28.4916 28.7037 28.3227 28.4703L26.25 25.5965L24.1637 28.4703C23.8225 28.9417 23.308 29.2582 22.7334 29.3503C22.1588 29.4423 21.5712 29.3023 21.0998 28.9611C20.6284 28.6199 20.3119 28.1054 20.2198 27.5308C20.1278 26.9563 20.2678 26.3686 20.609 25.8973L22.698 23.0262L19.3184 21.9324C19.0453 21.8427 18.7925 21.7 18.5746 21.5125C18.3567 21.3251 18.1778 21.0966 18.0482 20.84C17.7864 20.3218 17.7412 19.7209 17.9225 19.1693C18.0122 18.8963 18.1549 18.6435 18.3424 18.4256C18.5298 18.2076 18.7583 18.0288 19.0149 17.8991C19.5331 17.6374 20.134 17.5921 20.6855 17.7734L24.0625 18.8672V15.3125C24.0625 14.7323 24.293 14.1759 24.7032 13.7657C25.1134 13.3555 25.6698 13.125 26.25 13.125C26.8302 13.125 27.3866 13.3555 27.7968 13.7657C28.207 14.1759 28.4375 14.7323 28.4375 15.3125V18.8672L31.8145 17.7734C32.0875 17.6837 32.3756 17.6486 32.6623 17.6701C32.9489 17.6917 33.2285 17.7695 33.4851 17.8991C33.7417 18.0288 33.9702 18.2076 34.1576 18.4256C34.3451 18.6435 34.4878 18.8963 34.5775 19.1693C34.6673 19.4424 34.7024 19.7305 34.6808 20.0172C34.6593 20.3038 34.5815 20.5834 34.4518 20.84C34.3222 21.0966 34.1433 21.3251 33.9254 21.5125C33.7075 21.7 33.4547 21.8427 33.1816 21.9324L29.802 23.0262L31.8773 25.8973ZM13.125 10.9375V32.8125C13.125 33.3927 12.8945 33.9491 12.4843 34.3593C12.0741 34.7695 11.5177 35 10.9375 35C10.3573 35 9.80094 34.7695 9.3907 34.3593C8.98047 33.9491 8.75 33.3927 8.75 32.8125V10.9375C8.75 10.3573 8.98047 9.80094 9.3907 9.3907C9.80094 8.98047 10.3573 8.75 10.9375 8.75C11.5177 8.75 12.0741 8.98047 12.4843 9.3907C12.8945 9.80094 13.125 10.3573 13.125 10.9375Z" fill="var(--fill-0, #34343D)"/>
</svg>
